sfk_cyclingleg_states
version=1
nRows=13
nColumns=53
inDegrees=yes

# SIMM Motion File Header:
name sfk_cyclingleg_states
datacolumns 53
datarows 13
otherdata 1
range 0.00000000 0.01354984
endheader
time	/jointset/bb/crank_angle/value	/jointset/bb/crank_angle/speed	/jointset/spindle/pedal_angle_r/value	/jointset/spindle/pedal_angle_r/speed	/jointset/ground_pelvis/pelvis_tilt/value	/jointset/ground_pelvis/pelvis_tilt/speed	/jointset/ground_pelvis/pelvis_list/value	/jointset/ground_pelvis/pelvis_list/speed	/jointset/ground_pelvis/pelvis_rotation/value	/jointset/ground_pelvis/pelvis_rotation/speed	/jointset/ground_pelvis/pelvis_tx/value	/jointset/ground_pelvis/pelvis_tx/speed	/jointset/ground_pelvis/pelvis_ty/value	/jointset/ground_pelvis/pelvis_ty/speed	/jointset/ground_pelvis/pelvis_tz/value	/jointset/ground_pelvis/pelvis_tz/speed	/jointset/hip_r/hip_angle_r/value	/jointset/hip_r/hip_angle_r/speed	/jointset/hip_r/hip_adduction_r/value	/jointset/hip_r/hip_adduction_r/speed	/jointset/hip_r/hip_rotation_r/value	/jointset/hip_r/hip_rotation_r/speed	/jointset/knee_r/knee_angle_r/value	/jointset/knee_r/knee_angle_r/speed	/jointset/knee_r/tib_tx_r/value	/jointset/knee_r/tib_tx_r/speed	/jointset/knee_r/tib_ty_r/value	/jointset/knee_r/tib_ty_r/speed	/jointset/tib_pat_r/pat_angle_r/value	/jointset/tib_pat_r/pat_angle_r/speed	/jointset/tib_pat_r/pat_tx_r/value	/jointset/tib_pat_r/pat_tx_r/speed	/jointset/tib_pat_r/pat_ty_r/value	/jointset/tib_pat_r/pat_ty_r/speed	/jointset/ankle_r/ankle_angle_r/value	/jointset/ankle_r/ankle_angle_r/speed	/jointset/subtalar_r/subtalar_angle_r/value	/jointset/subtalar_r/subtalar_angle_r/speed	/jointset/mtp_r/mtp_angle_r/value	/jointset/mtp_r/mtp_angle_r/speed	/forceset/bifemlh_r/activation	/forceset/bifemlh_r/fiber_length	/forceset/bifemsh_r/activation	/forceset/bifemsh_r/fiber_length	/forceset/glut_max2_r/activation	/forceset/glut_max2_r/fiber_length	/forceset/vas_int_r/activation	/forceset/vas_int_r/fiber_length	/forceset/med_gas_r/activation	/forceset/med_gas_r/fiber_length	/forceset/tib_ant_r/activation	/forceset/tib_ant_r/fiber_length
      0.00000000	    -10.13487855	   -480.13863232	      7.81981920	    607.38333639	     -0.00000000	     -0.00000000	     -0.00000000	     -0.00000000	      0.00000000	     -0.00000000	      0.00000000	     -0.00000000	      0.00000000	     -0.00000000	      0.00000000	      0.00000000	     86.32931611	     21.93289715	      4.07550622	      1.53754667	     -3.84192465	     15.91686169	   -115.75559844	    153.42156058	     -0.00222969	      0.05232689	     -0.49468443	      0.04963396	     17.65087772	     -0.07885657	      0.02157084	      0.07540803	     -0.02426339	      0.01219225	     27.80654773	    -49.54325673	     -0.00000000	      0.00000000	     -0.00000000	     -0.00000000	     -0.10330788	      0.14233209	     -0.10330788	      0.14520003	     -0.10330788	      0.15736442	     -0.10330788	      0.16090737	     -0.10330788	      0.13015059	     -0.10330788	      0.11153100
      0.00100000	    -10.61501718	   -480.13863232	      8.42697324	    606.92433615	     -0.00000000	     -0.00000000	     -0.00000000	     -0.00000000	     -0.00000000	     -0.00000000	     -0.00000000	     -0.00000000	      0.00000000	      0.00000000	      0.00000000	      0.00000000	     86.35026989	     19.97432014	      4.07705262	      1.55522551	     -3.82593730	     16.05743856	   -115.60129587	    155.18149523	     -0.00217717	      0.05271976	     -0.49463448	      0.05024995	     17.65079401	     -0.08862921	      0.02164663	      0.07615761	     -0.02425114	      0.01230679	     27.75686813	    -49.81388220	     -0.00000000	     -0.00000000	      0.00000000	      0.00000000	     -0.10343663	      0.14225278	     -0.10343663	      0.14522953	     -0.10343663	      0.15731295	     -0.10343663	      0.16085163	     -0.10343663	      0.13017036	     -0.10343663	      0.11152083
      0.00223656	    -11.20873607	   -480.13863232	      9.17711730	    606.35347245	     -0.00000000	      0.00000000	     -0.00000000	     -0.00000000	     -0.00000000	     -0.00000000	     -0.00000000	     -0.00000000	      0.00000000	      0.00000000	      0.00000000	      0.00000000	     86.37347054	     17.54983289	      4.07898911	      1.57678236	     -3.80597556	     16.22794930	   -115.40806825	    157.34046607	     -0.00211168	      0.05319018	     -0.49457188	      0.05100783	     17.65067668	     -0.10123951	      0.02174137	      0.07707083	     -0.02423583	      0.01244563	     27.69507209	    -50.13152857	     -0.00000000	     -0.00000000	      0.00000000	      0.00000000	     -0.10359584	      0.14219605	     -0.10359584	      0.14525653	     -0.10359584	      0.15727656	     -0.10359584	      0.16075585	     -0.10359584	      0.13019828	     -0.10359584	      0.11152363
      0.00293710	    -11.54509611	   -480.13863232	      9.60178313	    606.02857282	     -0.00000000	      0.00000000	     -0.00000000	     -0.00000000	     -0.00000000	     -0.00000000	     -0.00000000	     -0.00000000	      0.00000000	      0.00000000	      0.00000000	      0.00000000	     86.38528359	     16.17522020	      4.08009795	      1.58884229	     -3.79457377	     16.32292689	   -115.29741794	    158.55506967	     -0.00207433	      0.05344913	     -0.49453599	      0.05143529	     17.65060317	     -0.10864573	      0.02179554	      0.07758147	     -0.02422709	      0.01252289	     27.65989208	    -50.30319289	     -0.00000000	      0.00000000	      0.00000000	     -0.00000000	     -0.10368603	      0.14217474	     -0.10368603	      0.14527025	     -0.10368603	      0.15726347	     -0.10368603	      0.16071836	     -0.10368603	      0.13021216	     -0.10368603	      0.11153052
      0.00469278	    -12.38806166	   -480.13863232	     10.66505236	    605.21008241	     -0.00000000	      0.00000000	     -0.00000000	      0.00000000	     -0.00000000	     -0.00000000	     -0.00000000	     -0.00000000	      0.00000000	      0.00000000	      0.00000000	      0.00000000	     86.41065605	     12.72768004	      4.08291364	      1.61856721	     -3.76571056	     16.55583169	   -115.01639346	    161.57182633	     -0.00197994	      0.05407401	     -0.49444475	      0.05250041	     17.65039557	     -0.12805601	      0.02193285	      0.07883976	     -0.02420493	      0.01271205	     27.57121606	    -50.70726321	      0.00000000	      0.00000000	      0.00000000	     -0.00000000	     -0.10391208	      0.14214137	     -0.10391208	      0.14530330	     -0.10391208	      0.15724422	     -0.10391208	      0.16060868	     -0.10391208	      0.13024505	     -0.10391208	      0.11157052
      0.00558459	    -12.81625809	   -480.13863232	     11.20460357	    604.79222683	     -0.00000000	     -0.00000000	     -0.00000000	      0.00000000	     -0.00000000	     -0.00000000	     -0.00000000	     -0.00000000	      0.00000000	      0.00000000	      0.00000000	      0.00000000	     86.42122552	     10.97544957	      4.08436373	      1.63338654	     -3.75089411	     16.67135150	   -114.87162335	    163.08926944	     -0.00193158	      0.05437825	     -0.49439769	      0.05303805	     17.65027678	     -0.13838878	      0.02200344	      0.07946716	     -0.02419355	      0.01280567	     27.52590850	    -50.89831015	      0.00000000	      0.00000000	     -0.00000000	     -0.00000000	     -0.10402690	      0.14213179	     -0.10402690	      0.14532010	     -0.10402690	      0.15723908	     -0.10402690	      0.16051826	     -0.10402690	      0.13025996	     -0.10402690	      0.11160322
      0.00673044	    -13.36642424	   -480.13863232	     11.89729542	    604.25353370	     -0.00000000	      0.00000000	     -0.00000000	     -0.00000000	     -0.00000000	     -0.00000000	     -0.00000000	      0.00000000	      0.00000000	      0.00000000	      0.00000000	      0.00000000	     86.43251161	      8.72355902	      4.08624612	      1.65214301	     -3.73170751	     16.81704048	   -114.68363764	    165.02408756	     -0.00186905	      0.05475608	     -0.49433653	      0.05372540	     17.65011038	     -0.15214162	      0.02209496	      0.08026165	     -0.02417881	      0.01292348	     27.46745260	    -51.12985521	      0.00000000	      0.00000000	     -0.00000000	     -0.00000000	     -0.10417443	      0.14212437	     -0.10417443	      0.14534204	     -0.10417443	      0.15723516	     -0.10417443	      0.16045972	     -0.10417443	      0.13028125	     -0.10417443	      0.11165202
      0.00782180	    -13.89042720	   -480.13863232	     12.55647137	    603.73877602	      0.00000000	      0.00000000	     -0.00000000	     -0.00000000	     -0.00000000	     -0.00000000	     -0.00000000	     -0.00000000	      0.00000000	      0.00000000	      0.00000000	      0.00000000	     86.44086165	      6.57856716	      4.08805881	      1.66970431	     -3.71327968	     16.95295881	   -114.50253889	    166.85130202	     -0.00180910	      0.05510230	     -0.49427754	      0.05437644	     17.64993696	     -0.16572632	      0.02218296	      0.08100616	     -0.02416465	      0.01303310	     27.41153790	    -51.33594821	      0.00000000	      0.00000000	     -0.00000000	     -0.00000000	     -0.10431494	      0.14212114	     -0.10431494	      0.14536346	     -0.10431494	      0.15723324	     -0.10431494	      0.16035454	     -0.10431494	      0.13030229	     -0.10431494	      0.11170148
      0.00881744	    -14.36847318	   -480.13863232	     13.15734448	    603.26791677	      0.00000000	      0.00000000	     -0.00000000	      0.00000000	     -0.00000000	     -0.00000000	     -0.00000000	      0.00000000	      0.00000000	      0.00000000	      0.00000000	      0.00000000	     86.44643743	      4.62186783	      4.08972910	      1.68546210	     -3.69633989	     17.07455497	   -114.33559052	    168.50494982	     -0.00175409	      0.05540654	     -0.49422310	      0.05496726	     17.64976569	     -0.17835335	      0.02226395	      0.08167500	     -0.02415162	      0.01313087	     27.36033720	    -51.51178245	      0.00000000	      0.00000000	     -0.00000000	     -0.00000000	     -0.10444313	      0.14212060	     -0.10444313	      0.14538351	     -0.10444313	      0.15723241	     -0.10444313	      0.16030673	     -0.10444313	      0.13032194	     -0.10444313	      0.11174751
      0.01012533	    -14.99644109	   -480.13863232	     13.94594648	    602.64785304	      0.00000000	      0.00000000	     -0.00000000	      0.00000000	     -0.00000000	     -0.00000000	     -0.00000000	      0.00000000	      0.00000000	      0.00000000	      0.00000000	      0.00000000	     86.45080182	      2.05226218	      4.09194683	      1.70577215	     -3.67390565	     17.23083100	   -114.11379452	    170.65784216	     -0.00168137	      0.05578937	     -0.49415071	      0.05573877	     17.64952142	     -0.19523487	      0.02237133	      0.08253854	     -0.02413437	      0.01325605	     27.29282376	    -51.72526395	      0.00000000	      0.00000000	     -0.00000000	     -0.00000000	     -0.10461152	      0.14212169	     -0.10461152	      0.14541063	     -0.10461152	      0.15723199	     -0.10461152	      0.16017183	     -0.10461152	      0.13034852	     -0.10461152	      0.11180848
      0.01143322	    -15.62440901	   -480.13863232	     14.73373654	    602.02636486	      0.00000000	      0.00000000	      0.00000000	     -0.00000000	     -0.00000000	     -0.00000000	     -0.00000000	      0.00000000	      0.00000000	      0.00000000	      0.00000000	      0.00000000	     86.45180632	     -0.51590848	      4.09419082	      1.72563066	     -3.65126957	     17.38321950	   -113.88919719	    172.78868187	     -0.00160816	      0.05615310	     -0.49407730	      0.05650500	     17.64925486	     -0.21243614	      0.02247984	      0.08338500	     -0.02411695	      0.01337750	     27.22504399	    -51.91908791	      0.00000000	      0.00000000	     -0.00000000	     -0.00000000	     -0.10477991	      0.14212418	     -0.10477991	      0.14543868	     -0.10477991	      0.15723178	     -0.10477991	      0.16011800	     -0.10477991	      0.13037589	     -0.10477991	      0.11186976
      0.01239445	    -16.08593133	   -480.13863232	     15.31220085	    601.56889324	      0.00000000	      0.00000000	     -0.00000000	     -0.00000000	     -0.00000000	     -0.00000000	     -0.00000000	     -0.00000000	      0.00000000	      0.00000000	      0.00000000	      0.00000000	     86.45040379	     -2.40209082	      4.09585644	      1.73993212	     -3.63450753	     17.49276142	   -113.72236116	    174.34063657	     -0.00155406	      0.05640826	     -0.49402272	      0.05706472	     17.64904450	     -0.22527251	      0.02256029	      0.08399621	     -0.02410405	      0.01346436	     27.17507461	    -52.04914318	      0.00000000	      0.00000000	     -0.00000000	     -0.00000000	     -0.10490367	      0.14212679	     -0.10490367	      0.14545990	     -0.10490367	      0.15723150	     -0.10490367	      0.16000982	     -0.10490367	      0.13039656	     -0.10490367	      0.11191494
      0.01354984	    -16.64068154	   -480.13863232	     16.00693313	    601.01841906	      0.00000000	      0.00000000	      0.00000000	      0.00000000	     -0.00000000	     -0.00000000	     -0.00000000	     -0.00000000	      0.00000000	      0.00000000	      0.00000000	      0.00000000	     86.44631952	     -4.66745431	      4.09787652	      1.75678766	     -3.61422169	     17.62170367	   -113.51985852	    176.19024609	     -0.00148872	      0.05670136	     -0.49395640	      0.05773363	     17.64877521	     -0.24090932	      0.02265776	      0.08471868	     -0.02408843	      0.01356605	     27.11485344	    -52.19172490	      0.00000000	      0.00000000	     -0.00000000	     -0.00000000	     -0.10505242	      0.14213063	     -0.10505242	      0.14548610	     -0.10505242	      0.15723083	     -0.10505242	      0.15995392	     -0.10505242	      0.13042204	     -0.10505242	      0.11196939
